<svg id="Layer_1" data-name="Layer 1" xmlns="http://www.w3.org/2000/svg" viewbox="0 0 100 100"
  width="30" height="30">
  <defs>
    <style>.cls-1{fill:#ea4335;}.cls-2{fill:#34a853;}.cls-3{fill:#4285f4;}.cls-4{fill:#fbbc05;}</style>
  </defs>
  <path class="cls-1"
    d="M3.46,29.55V16.44A13.23,13.23,0,0,1,10.66,4.8,13.46,13.46,0,0,1,24,5.71,12.52,12.52,0,0,1,25.79,7.2a12.81,12.81,0,0,1,3.26,5.44,14.42,14.42,0,0,1-2.3,12.17,10.51,10.51,0,0,1-8.39,4.53L4,29.54ZM16.52,4.44A12.17,12.17,0,0,0,11.1,5.69h0A12.23,12.23,0,0,0,4.45,16.44v12.1l13.91-.19A9.56,9.56,0,0,0,26,24.22a13.38,13.38,0,0,0,2.14-11.3,11.65,11.65,0,0,0-3-5,11.29,11.29,0,0,0-1.65-1.38A12.39,12.39,0,0,0,16.52,4.44Z" />
  <path class="cls-2"
    d="M20.8,6.5A9.58,9.58,0,0,0,19.13,6a10.2,10.2,0,0,0-1.67-.26,7.56,7.56,0,0,0-.83,0,7.87,7.87,0,0,0-.84,0V27.3a7.87,7.87,0,0,0,.84,0,7.56,7.56,0,0,0,.83,0v-10h1.67V27a9.58,9.58,0,0,0,1.67-.54V17.58L19.71,16.5l1.09-1.08Zm-1.67,9.16H17.46V7.37a9.27,9.27,0,0,1,1.67.3Z" />
  <path class="cls-3"
    d="M14.13,6V27.34H5.79V16.5c0-.28,0-.56,0-.83A10.2,10.2,0,0,1,6.08,14a10.5,10.5,0,0,1,.54-1.67,9.76,9.76,0,0,1,.84-1.6V25.67H9.12v-17a10,10,0,0,1,1.67-1.31V25.67h1.67v-5h.08l-.08-.08V6.5A9.31,9.31,0,0,1,14.13,6Z" />
  <path class="cls-4"
    d="M25,16.71l.94-1.05,1.31-1.46a1.18,1.18,0,0,0,0-.2,10.5,10.5,0,0,0-.54-1.67l-1.26,1.4-1.24,1.38V8.7a10.1,10.1,0,0,0-1.67-1.32V25.63a10.1,10.1,0,0,0,1.67-1.32V18.45l1,1.44,1.11,1.57a8.08,8.08,0,0,0,.37-.79c.14-.35.27-.71.38-1.07L25.8,17.9Z" />
</svg>